<?xml version="1.0" standalone="no"?>
<!DOCTYPE svg PUBLIC "-//W3C//DTD SVG 1.1//EN" "http://www.w3.org/Graphics/SVG/1.1/DTD/svg11.dtd" >
<svg xmlns="http://www.w3.org/2000/svg">
<metadata></metadata>
<defs>
<font id="flama_semicondensedbasic" horiz-adv-x="1105" >
<font-face units-per-em="2048" ascent="1638" descent="-410" />
<missing-glyph horiz-adv-x="368" />
<glyph unicode="&#xfb01;" horiz-adv-x="1103" d="M66 909v135h153v166q0 131 72 202t196 71q65 0 127 -15v-133q-37 11 -104 11q-125 0 -125 -134v-168h205v-135h-205v-909h-166v909h-153zM791 0v1049h165v-1049h-165zM791 1217v229h165v-229h-165z" />
<glyph unicode="&#xfb02;" horiz-adv-x="1216" d="M66 909v135h153v166q0 131 72 202t196 71q65 0 127 -15v-133q-37 11 -104 11q-125 0 -125 -134v-168h205v-135h-205v-909h-166v909h-153zM786 209v1251h166v-1218q0 -113 117 -113q36 0 86 8v-129q-67 -22 -141 -22q-108 0 -168 58t-60 165z" />
<glyph horiz-adv-x="0" />
<glyph horiz-adv-x="682" />
<glyph unicode=" "  horiz-adv-x="368" />
<glyph unicode="&#x09;" horiz-adv-x="368" />
<glyph unicode="&#xa0;" horiz-adv-x="368" />
<glyph unicode="!" horiz-adv-x="485" d="M160 954v506h164v-506l-29 -546h-107zM162 0v242h160v-242h-160z" />
<glyph unicode="&#x22;" horiz-adv-x="712" d="M123 1251v211h162v-211l-23 -241h-115zM430 1251v211h162v-211l-23 -241h-116z" />
<glyph unicode="#" horiz-adv-x="1058" d="M59 395l13 111h184l72 485h-193l15 107h188l55 366h99l-50 -366h279l51 366h100l-51 -366h187l-15 -107h-182l-70 -485h191l-10 -111h-193l-53 -399h-105l54 399h-279l-53 -399h-103l54 399h-185zM360 506h277l74 485h-281z" />
<glyph unicode="$" horiz-adv-x="1001" d="M68 246l102 108q82 -69 155.5 -101t182.5 -32t172 54.5t63 144.5q0 85 -44.5 135t-135.5 86q-1 1 -93 41t-93 41q-236 110 -236 328q0 124 80.5 217t214.5 116v154h146v-147q188 -16 313 -125l-88 -117q-78 56 -143.5 81t-145.5 25q-92 0 -153.5 -48t-61.5 -134 q0 -137 174 -207l178 -80q129 -57 193.5 -140.5t64.5 -203.5q0 -141 -90.5 -238t-240.5 -116v-170h-146v164q-221 17 -368 164z" />
<glyph unicode="%" horiz-adv-x="1445" d="M98 963v282q0 116 71.5 179t180.5 63t182.5 -62t73.5 -180v-287q0 -110 -75.5 -173.5t-180.5 -63.5q-112 0 -182 64.5t-70 177.5zM219 948q0 -55 34 -90t99 -35q61 0 96 37t35 90v314q0 49 -35.5 84.5t-95.5 35.5q-63 0 -98 -35t-35 -85v-316zM305 -6l748 1485h106 l-745 -1485h-109zM834 213v279q0 116 72.5 183.5t180.5 67.5t181 -62t73 -179v-287q0 -110 -75.5 -174t-180.5 -64q-109 0 -180 61.5t-71 174.5zM956 205q0 -55 33.5 -89t95.5 -34q63 0 98.5 37.5t35.5 87.5v313q0 49 -36 86t-98 37t-95.5 -35.5t-33.5 -87.5v-315z" />
<glyph unicode="&#x26;" horiz-adv-x="1353" d="M115 369q0 134 84 251t243 179q-161 197 -161 344q0 59 20 116.5t61.5 110t118 85t178.5 32.5q163 0 264 -91t101 -218q0 -285 -346 -418l303 -383q48 90 94 287l150 -23q-41 -199 -154 -377l213 -264h-209l-129 164q-165 -193 -411 -193q-191 0 -305.5 112t-114.5 286z M283 385q0 -119 79 -194.5t205 -75.5q180 0 297 143l-346 440q-120 -43 -177.5 -127.5t-57.5 -185.5zM444 1157q0 -38 21 -85t45 -83t76 -107q15 -20 22 -30q131 54 192.5 129.5t61.5 183.5q0 90 -59 144.5t-152 54.5q-97 0 -152 -61.5t-55 -145.5z" />
<glyph unicode="'" horiz-adv-x="407" d="M123 1251v211h162v-211l-23 -241h-115z" />
<glyph unicode="(" horiz-adv-x="485" d="M111 559q0 241 63 483.5t184 434.5l101 -4q-53 -132 -84 -220.5t-60.5 -201.5t-42 -232t-12.5 -262q0 -473 201 -922l-103 -6q-118 178 -182.5 436.5t-64.5 493.5z" />
<glyph unicode=")" horiz-adv-x="485" d="M25 -365q200 439 200 922q0 188 -26 349t-63.5 276t-108.5 291l102 4q120 -193 183 -435.5t63 -482.5q0 -234 -64.5 -492.5t-181.5 -437.5z" />
<glyph unicode="*" horiz-adv-x="759" d="M43 1243l55 84l230 -135v268h104v-268l227 135l56 -84l-238 -139l158 -221l-88 -58l-168 236l-168 -236l-86 58l154 221z" />
<glyph unicode="+" d="M156 594v113h342v354h112v-354h340v-113h-340v-354h-112v354h-342z" />
<glyph unicode="," horiz-adv-x="438" d="M133 8v234h172v-228l-84 -254h-84l64 248h-68z" />
<glyph unicode="-" horiz-adv-x="598" d="M82 543v131h434v-131h-434z" />
<glyph unicode="." horiz-adv-x="438" d="M133 0v242h172v-242h-172z" />
<glyph unicode="/" horiz-adv-x="624" d="M-6 -367l450 1837h119l-444 -1837h-125z" />
<glyph unicode="0" horiz-adv-x="1089" d="M115 354v752q0 122 62 210t157.5 128.5t210.5 40.5q91 0 168.5 -23.5t136.5 -69t92 -118.5t33 -166v-752q0 -93 -35 -167t-95.5 -120t-136.5 -70t-161 -24q-88 0 -165 24t-137 70t-95 119.5t-35 165.5zM291 358q0 -110 67.5 -173.5t190.5 -63.5q124 0 186 65.5t62 173.5 v754q0 98 -67 163.5t-183 65.5q-120 0 -188 -65.5t-68 -169.5v-750z" />
<glyph unicode="1" horiz-adv-x="681" d="M92 1380l252 84h100v-1464h-172v1296l-168 -51z" />
<glyph unicode="2" horiz-adv-x="956" d="M78 1079v60q0 166 108.5 256t282.5 90q182 0 274.5 -101.5t92.5 -273.5q0 -185 -82.5 -354.5t-239.5 -370.5l-172 -229v-4h528v-152h-759v102l278 375q134 184 204.5 330t70.5 283v26q-2 103 -55.5 164t-162.5 61q-99 0 -153.5 -51.5t-54.5 -144.5v-66h-160z" />
<glyph unicode="3" horiz-adv-x="1032" d="M111 307v76h163v-64q0 -95 70 -148.5t172 -53.5q126 0 184 72t58 214q0 79 -27 137t-69.5 86.5t-84 41t-81.5 12.5h-134v143h123q113 0 180.5 67.5t67.5 201.5q0 128 -67 188.5t-164 60.5q-99 0 -159 -48.5t-60 -151.5v-60h-160v62q0 159 106.5 250.5t288.5 91.5 q127 0 215 -51.5t127 -132.5t39 -183q0 -128 -56.5 -226.5t-170.5 -127.5v-6q119 -26 190.5 -127t71.5 -234q0 -191 -119 -306.5t-295 -115.5q-197 0 -303 93.5t-106 238.5z" />
<glyph unicode="4" horiz-adv-x="1060" d="M86 373v135l498 952h182l-510 -944h399v277l164 102v-379h170v-143h-170v-373h-164v373h-569z" />
<glyph unicode="5" horiz-adv-x="1028" d="M115 295v88h166v-68q0 -94 66.5 -147t168.5 -53q50 0 91 12.5t76.5 40.5t55 80.5t19.5 124.5v176q0 242 -234 242q-118 0 -221 -99l-156 15l39 755h674v-153h-538l-23 -486q116 105 291 105q68 0 127.5 -20.5t107.5 -61t75.5 -109.5t27.5 -159v-224q0 -178 -120 -278.5 t-302 -100.5q-185 0 -288 92t-103 228z" />
<glyph unicode="6" horiz-adv-x="1050" d="M115 352l2 756q0 178 117.5 278.5t297.5 100.5q178 0 287 -86t109 -230v-84h-170v70q0 89 -65 140t-169 51q-111 0 -171 -63.5t-60 -162.5v-385q43 84 130.5 132.5t188.5 48.5q139 0 233.5 -91.5t94.5 -230.5v-260q0 -166 -117 -263.5t-299 -97.5q-180 0 -294.5 104 t-114.5 273zM293 346q0 -97 65 -163t179 -66q110 0 171.5 60.5t61.5 148.5v249q0 59 -19 102t-52 65.5t-70 33t-80 10.5q-103 0 -179.5 -75.5t-76.5 -184.5v-180z" />
<glyph unicode="7" horiz-adv-x="956" d="M68 1311v151h794v-123q-106 -120 -188 -288t-130 -348t-72 -358.5t-23 -344.5h-181q1 215 41 430.5t102.5 383t132 295t136.5 202.5h-612z" />
<glyph unicode="8" horiz-adv-x="1056" d="M113 319v142q0 98 57.5 175t148.5 112q-87 27 -139.5 102.5t-52.5 157.5v135q0 109 57 188.5t146.5 116.5t197.5 37q83 0 154.5 -20.5t127.5 -60t88 -104t32 -147.5v-133q0 -88 -52 -163.5t-143 -106.5q91 -29 151 -105.5t60 -179.5v-146q0 -161 -118 -252.5t-302 -91.5 q-185 0 -299 91.5t-114 252.5zM285 322q0 -92 69.5 -149.5t173.5 -57.5q111 0 177.5 56.5t66.5 156.5v141q0 103 -74.5 161t-169.5 58q-97 0 -170 -58.5t-73 -156.5v-151zM295 1014q0 -65 37.5 -113t89.5 -70t108 -22q93 0 163.5 58.5t70.5 148.5v137q0 91 -71.5 143 t-168.5 52q-90 0 -159.5 -56t-69.5 -145v-133z" />
<glyph unicode="9" horiz-adv-x="1050" d="M113 870v265q0 166 115 259t298 93q180 0 294 -103.5t114 -271.5v-754q0 -179 -116.5 -281t-299.5 -102q-176 0 -285.5 86t-109.5 230v86h170v-68q0 -89 65.5 -140.5t167.5 -51.5q110 0 171 63.5t61 161.5v379q-50 -86 -133 -130t-185 -44q-144 0 -235.5 92t-91.5 231z M281 887q0 -59 19 -101.5t52 -65t69.5 -32.5t78.5 -10q103 0 180.5 76t77.5 184v182q0 92 -65.5 161t-176.5 69t-173 -61.5t-62 -149.5v-252z" />
<glyph unicode=":" horiz-adv-x="438" d="M133 0v242h172v-242h-172zM133 782v240h172v-240h-172z" />
<glyph unicode=";" horiz-adv-x="438" d="M133 8v234h172v-228l-84 -254h-84l64 248h-68zM133 782v240h172v-240h-172z" />
<glyph unicode="&#x3c;" d="M170 602v100l711 332l55 -114l-571 -267q35 -18 286 -140t281 -138l-58 -115z" />
<glyph unicode="=" d="M152 422v133h800v-133h-800zM152 745v132h800v-132h-800z" />
<glyph unicode="&#x3e;" d="M168 920l57 114l711 -332v-100l-705 -340l-59 115l569 276q-29 15 -155.5 73.5t-262 121.5t-155.5 72z" />
<glyph unicode="?" horiz-adv-x="960" d="M117 1096v30q0 171 101.5 264t264.5 93q171 0 269 -95t98 -266q1 -119 -47.5 -207t-134.5 -176q-3 -3 -31 -33.5t-34.5 -38.5t-26.5 -35.5t-27 -44.5t-15.5 -44t-9.5 -54v-81h-151v75q5 98 41 166.5t104 147.5q44 48 65 73.5t50 68.5t41 85.5t12 91.5q0 106 -56.5 166.5 t-158.5 60.5q-88 0 -147.5 -50.5t-59.5 -153.5v-43h-147zM365 0v242h172v-242h-172z" />
<glyph unicode="@" horiz-adv-x="1814" d="M115 510q1 192 65 357.5t177 282.5t273.5 184t346.5 67q214 0 379 -82t257.5 -238t92.5 -364q0 -117 -32 -218t-85 -172t-122.5 -123t-143.5 -79.5t-149 -34.5h-144l29 176h-4q-43 -70 -97 -116t-105 -64t-105 -18q-115 0 -178.5 57.5t-63.5 159.5q0 38 6 65l68 414 q18 99 73 169.5t126 102t151 31.5q83 0 147 -43t80 -125h2l25 158h153l-141 -848q167 21 277 163t110 357q0 112 -34.5 206t-93.5 159t-137.5 110.5t-165.5 66.5t-179 21q-213 0 -379 -100t-256 -276.5t-90 -399.5q0 -213 81 -359.5t226 -226.5q166 -88 395 -88q80 0 158 9 t119.5 18t118.5 27l22 -105q-92 -34 -208 -50.5t-212 -16.5q-264 0 -465 104q-175 95 -273 266.5t-95 415.5zM668 328q0 -69 30.5 -104.5t110.5 -35.5q92 0 177 84.5t106 204.5l32 209q4 36 4 55q0 100 -47.5 155.5t-126.5 55.5q-90 0 -150 -60.5t-77 -164.5l-53 -340 q-6 -42 -6 -59z" />
<glyph unicode="A" horiz-adv-x="1185" d="M53 0l439 1464h210l433 -1464h-179l-127 440h-483l-127 -440h-166zM383 580h408l-201 704h-2z" />
<glyph unicode="B" horiz-adv-x="1161" d="M156 0v1460h503q172 0 270.5 -95t98.5 -261q0 -131 -71.5 -230t-186.5 -120v-4q134 -23 211.5 -121.5t77.5 -231.5q0 -191 -110.5 -294t-280.5 -103h-512zM332 143h284q122 0 191.5 69.5t69.5 205.5q0 87 -41 146.5t-103.5 84.5t-142.5 25h-258v-531zM332 819h248 q115 0 193.5 65.5t78.5 194.5q0 120 -67.5 181t-176.5 61h-276v-502z" />
<glyph unicode="C" horiz-adv-x="1165" d="M119 412v635q0 199 135 318.5t350 119.5q198 0 322.5 -105t124.5 -274v-109h-158v78q0 118 -75.5 190t-217.5 72q-144 0 -223.5 -82t-79.5 -217v-608q0 -155 83 -230t226 -75q134 0 210.5 68.5t76.5 179.5v92h158v-105q0 -176 -123 -280.5t-322 -104.5q-105 0 -193 27 t-154 80t-103 137.5t-37 192.5z" />
<glyph unicode="D" horiz-adv-x="1208" d="M156 0v1460h483q99 0 180.5 -25t142.5 -73.5t94.5 -127t33.5 -179.5v-625q0 -208 -124 -319t-327 -111h-483zM334 147h282q76 0 133.5 23.5t91.5 64t51 90t17 105.5v602q0 125 -72.5 203t-215.5 78h-287v-1166z" />
<glyph unicode="E" horiz-adv-x="1071" d="M156 0v1460h813v-151h-635v-480h506v-149h-506v-528h635v-152h-813z" />
<glyph unicode="F" horiz-adv-x="1038" d="M156 0v1460h813v-147h-635v-490h504v-145h-504v-678h-178z" />
<glyph unicode="G" horiz-adv-x="1193" d="M119 412v626q0 201 136 325t349 124q200 0 328.5 -105t128.5 -272v-102h-162v79q0 112 -80 183t-215 71q-145 0 -227 -86.5t-82 -222.5v-610q0 -141 82 -220t231 -79q152 0 221.5 72t69.5 192v240h-293v137h461v-395q0 -177 -128 -285.5t-335 -108.5q-140 0 -247.5 46.5 t-172.5 147t-65 243.5z" />
<glyph unicode="H" horiz-adv-x="1263" d="M156 0v1460h178v-626h598v626h176v-1460h-176v674h-598v-674h-178z" />
<glyph unicode="I" horiz-adv-x="489" d="M156 0v1460h178v-1460h-178z" />
<glyph unicode="J" horiz-adv-x="1081" d="M66 377v141h170v-131q0 -264 264 -264q71 0 124 22.5t82 61t42.5 82.5t13.5 94v1077h176v-1046q0 -199 -111.5 -319t-324.5 -120q-206 0 -321 102t-115 300z" />
<glyph unicode="K" horiz-adv-x="1173" d="M156 0v1460h178v-755l579 755h191l-438 -565l440 -895h-199l-368 756l-205 -267v-489h-178z" />
<glyph unicode="L" horiz-adv-x="1044" d="M156 0v1460h178v-1308h635v-152h-813z" />
<glyph unicode="M" horiz-adv-x="1431" d="M156 0v1460h229l336 -727h4l334 727h217v-1460h-162v1221h-4l-332 -736h-125l-334 734h-6v-1219h-157z" />
<glyph unicode="N" horiz-adv-x="1261" d="M156 0v1460h178l612 -1106h4v1106h158v-1460h-154l-637 1161h-4v-1161h-157z" />
<glyph unicode="O" horiz-adv-x="1214" d="M119 422v596q0 220 135 344.5t352 124.5q105 0 192.5 -27t155 -80.5t105 -140t37.5 -197.5v-598q0 -224 -136.5 -346.5t-351.5 -122.5q-105 0 -192.5 27t-154.5 80t-104.5 140t-37.5 200zM297 432q0 -140 82 -221.5t231 -81.5q143 0 225.5 84t82.5 221v608 q0 136 -85 214.5t-231 78.5t-225.5 -84.5t-79.5 -232.5v-586z" />
<glyph unicode="P" horiz-adv-x="1138" d="M156 0v1460h458q203 0 310.5 -121t107.5 -311q0 -206 -116 -331.5t-330 -125.5h-252v-571h-178zM334 713h215q148 0 228.5 79.5t80.5 229.5q0 130 -70.5 211.5t-199.5 81.5h-254v-602z" />
<glyph unicode="Q" horiz-adv-x="1214" d="M119 422v596q0 220 135 344.5t352 124.5q105 0 192.5 -27t155 -80.5t105 -140t37.5 -197.5v-598q0 -268 -191 -374l228 -113l-91 -154l-325 185q-76 -13 -109 -13q-105 0 -192.5 27t-154.5 80t-104.5 140t-37.5 200zM297 432q0 -140 82 -221.5t231 -81.5q143 0 225.5 84 t82.5 221v608q0 136 -85 214.5t-231 78.5t-225.5 -84.5t-79.5 -232.5v-586z" />
<glyph unicode="R" horiz-adv-x="1181" d="M156 0v1460h458q211 0 324 -113.5t113 -306.5q0 -163 -79.5 -272.5t-232.5 -136.5l355 -631h-193l-332 602h-235v-602h-178zM334 741h244q296 0 296 289q0 134 -69.5 210.5t-214.5 76.5h-256v-576z" />
<glyph unicode="S" horiz-adv-x="1093" d="M59 176l117 125q90 -87 173 -127.5t212 -40.5q123 0 194.5 65t71.5 169q0 53 -17.5 94.5t-53 73t-68.5 51t-84 43.5l-194 92q-273 129 -273 373q0 167 116 279t310 112q272 0 414 -180l-125 -117q-78 76 -143 110.5t-156 34.5q-110 0 -175 -53t-65 -162q0 -83 50 -138.5 t155 -105.5l168 -79q320 -151 320 -404q0 -186 -135 -301t-339 -115q-300 0 -473 201z" />
<glyph unicode="T" horiz-adv-x="1089" d="M47 1313v147h995v-147h-407v-1313h-176v1313h-412z" />
<glyph unicode="U" horiz-adv-x="1245" d="M145 414v1046h177v-1026q0 -84 25.5 -146.5t70 -97t97 -51t114.5 -16.5q139 1 221 83q78 79 78 207v13v1034h170v-1038q1 -209 -133 -328t-349 -119q-98 0 -180.5 25t-149 76.5t-104 137.5t-37.5 200z" />
<glyph unicode="V" horiz-adv-x="1110" d="M49 1460h180l332 -1243h4l332 1243h164l-412 -1466h-188z" />
<glyph unicode="W" horiz-adv-x="1599" d="M61 1460h175l229 -1157h4l246 1157h188l238 -1153h4l225 1153h166l-309 -1466h-174l-248 1192h-8l-250 -1192h-176z" />
<glyph unicode="X" horiz-adv-x="1050" d="M41 0l377 754l-346 706h190l270 -569l273 569h176l-352 -704l381 -756h-187l-307 618l-301 -618h-174z" />
<glyph unicode="Y" horiz-adv-x="1071" d="M53 1460h185l309 -680l303 680h170l-395 -848v-612h-179v614z" />
<glyph unicode="Z" horiz-adv-x="1032" d="M94 0v113l639 1204h-622v143h829v-121l-635 -1192h627v-147h-838z" />
<glyph unicode="[" horiz-adv-x="552" d="M156 -360v1820h352v-110h-199v-1600h199v-110h-352z" />
<glyph unicode="\" horiz-adv-x="624" d="M55 1470h119l449 -1837h-123z" />
<glyph unicode="]" horiz-adv-x="552" d="M45 -250h199v1600h-199v110h352v-1820h-352v110z" />
<glyph unicode="^" horiz-adv-x="880" d="M197 381l190 762h127l168 -762h-115l-118 594q-132 -590 -134 -594h-118z" />
<glyph unicode="_" horiz-adv-x="944" d="M0 -78h944v-115h-944v115z" />
<glyph unicode="`" horiz-adv-x="542" d="M51 1485h174l183 -303h-132z" />
<glyph unicode="a" horiz-adv-x="976" d="M90 276q0 72 24.5 130t64.5 95.5t92.5 63t106.5 36.5t109 11h187v170q0 85 -52.5 127.5t-144.5 42.5q-87 0 -146 -41.5t-59 -117.5v-58h-149v64q0 130 105 202t266 72q152 0 250 -72.5t98 -214.5v-524q0 -17 10 -262h-154q-5 65 -8 162h-6q-24 -52 -62 -90.5t-81 -58 t-82.5 -28t-77.5 -8.5q-123 0 -207 78t-84 221zM260 301q0 -96 51.5 -146.5t130.5 -50.5q95 0 163.5 71t68.5 175v152h-166q-38 0 -71 -5t-66.5 -19t-57 -36t-38.5 -58t-15 -83z" />
<glyph unicode="b" horiz-adv-x="1015" d="M147 0v1460h166v-575h6q40 91 124 140.5t169 49.5q142 0 217.5 -91t75.5 -226v-443q0 -155 -92 -247.5t-227 -92.5q-85 0 -170.5 53.5t-114.5 139.5h-4l-4 -168h-146zM313 385q0 -120 72 -203.5t170 -83.5q85 0 134.5 54.5t49.5 156.5v441q0 92 -48 141t-144 49 q-89 0 -161.5 -81.5t-72.5 -207.5v-266z" />
<glyph unicode="c" horiz-adv-x="935" d="M111 348v346q0 180 104 279.5t268 99.5q168 0 263.5 -83t95.5 -218v-57h-154v49q0 30 -10 59.5t-31.5 57t-63 44.5t-96.5 17q-109 0 -160 -65t-51 -172v-361q0 -112 53 -175t167 -63q57 0 97 17.5t59.5 47.5t27.5 59.5t8 62.5v45h154v-62q0 -134 -94 -217.5t-263 -83.5 q-174 0 -274 95t-100 278z" />
<glyph unicode="d" horiz-adv-x="1013" d="M111 289v450q0 151 92.5 242.5t224.5 91.5q84 0 158.5 -44t111.5 -122h2v553h168v-1460h-151l-6 182h-6q-50 -105 -131.5 -156t-172.5 -51q-141 0 -215.5 89t-74.5 225zM276 305q0 -93 46 -144.5t139 -51.5q96 0 168.5 84t72.5 213v264q0 116 -75 199t-166 83 q-83 0 -134 -52t-51 -165v-430z" />
<glyph unicode="e" horiz-adv-x="964" d="M111 356v312q0 191 109.5 298t279.5 107q169 0 266.5 -100t97.5 -275v-211h-585v-131q0 -241 253 -241q53 0 105.5 13.5t78 25.5t68.5 34l60 -112q-131 -101 -338 -101q-181 0 -288 94t-107 287zM279 606h426v107q0 63 -19 113t-69.5 85t-127.5 35q-103 0 -156.5 -68 t-53.5 -163v-109z" />
<glyph unicode="f" horiz-adv-x="653" d="M66 909v135h153v166q0 131 72 202t196 71q65 0 127 -15v-133q-37 11 -104 11q-125 0 -125 -134v-168h205v-135h-205v-909h-166v909h-153z" />
<glyph unicode="g" horiz-adv-x="1009" d="M111 326v430q0 148 96 233.5t227 85.5q54 0 108 -18t103.5 -61t71.5 -103h2l8 158h141v-1039q0 -191 -106.5 -294t-296.5 -103q-213 0 -346 80l53 131q141 -74 283 -74q119 0 183 58t64 174v233h-2q-43 -97 -122 -144.5t-168 -47.5q-143 0 -221 83.5t-78 217.5zM276 352 q0 -198 187 -198q94 0 165.5 86t71.5 215v233q0 114 -72.5 189t-160.5 75q-89 0 -140 -57t-51 -162v-381z" />
<glyph unicode="h" horiz-adv-x="1036" d="M147 0v1460h166v-579h4q44 94 129 143t185 49q120 0 193 -78t73 -196v-799h-166v754q0 99 -41.5 142.5t-130.5 43.5q-92 0 -169 -80.5t-77 -191.5v-668h-166z" />
<glyph unicode="i" horiz-adv-x="458" d="M147 0v1049h166v-1049h-166zM147 1217v229h166v-229h-166z" />
<glyph unicode="j" horiz-adv-x="479" d="M-14 -242q24 -4 57 -4q74 0 99.5 39t25.5 115v1141h166v-1172q0 -130 -64.5 -196t-185.5 -66q-52 0 -98 6v137zM168 1217v229h166v-229h-166z" />
<glyph unicode="k" horiz-adv-x="933" d="M147 0v1460h166v-915l377 504h189l-279 -357l289 -692h-176l-234 567l-166 -215v-352h-166z" />
<glyph unicode="l" horiz-adv-x="569" d="M143 209v1251h166v-1218q0 -113 117 -113q36 0 86 8v-129q-67 -22 -141 -22q-108 0 -168 58t-60 165z" />
<glyph unicode="m" horiz-adv-x="1617" d="M147 0v1049h156v-179h4q45 100 132 151.5t192 51.5q99 0 167.5 -58t88.5 -143h4q49 100 134.5 150.5t188.5 50.5q117 0 192 -76t75 -194v-803h-166v760q0 96 -44 138t-128 42q-91 0 -168 -75.5t-78 -182.5v-682h-166v768q-1 91 -45 131.5t-127 40.5q-93 0 -169.5 -79 t-76.5 -189v-672h-166z" />
<glyph unicode="n" horiz-adv-x="1034" d="M147 0v1049h156v-175h4q49 100 134 149.5t190 49.5q117 0 191.5 -78.5t74.5 -195.5v-799h-166v758q0 97 -43 139.5t-129 42.5q-93 0 -169.5 -79t-76.5 -189v-672h-166z" />
<glyph unicode="o" horiz-adv-x="989" d="M111 354v334q0 182 107 283.5t274 101.5q174 0 280.5 -97.5t106.5 -281.5v-334q0 -189 -106 -287t-277 -98q-175 0 -280 97t-105 282zM276 354q0 -117 54.5 -181t167.5 -64q215 0 215 247v349q0 106 -55 171.5t-166 65.5t-163.5 -68.5t-52.5 -179.5v-340z" />
<glyph unicode="p" horiz-adv-x="1015" d="M147 -365v1414h156v-172h4q47 98 130.5 148t170.5 50q141 0 219 -89t78 -222v-440q0 -159 -86.5 -254t-232.5 -95q-83 0 -161.5 48t-107.5 131h-4v-519h-166zM313 393q0 -126 72 -210.5t174 -84.5q82 0 131 53t49 156v438q0 88 -46.5 141.5t-145.5 53.5q-98 0 -166 -83.5 t-68 -213.5v-250z" />
<glyph unicode="q" horiz-adv-x="1009" d="M111 291v448q0 153 93 243.5t226 90.5q89 0 172 -48.5t115 -135.5h4l8 162h139v-1416h-166v535h-4q-54 -97 -134 -146t-161 -49q-140 0 -216 89.5t-76 226.5zM276 299q0 -190 179 -190q91 0 169 82t78 206v267q0 120 -73.5 203t-169.5 83q-85 0 -134 -55t-49 -160v-436z " />
<glyph unicode="r" horiz-adv-x="710" d="M147 0v1049h156v-181h2q53 108 122.5 150.5t166.5 42.5q44 0 74 -6v-150q-41 6 -90 6q-50 0 -95.5 -14.5t-84 -44t-61.5 -81t-24 -118.5v-653h-166z" />
<glyph unicode="s" horiz-adv-x="878" d="M63 129l103 115q137 -133 272 -133q96 0 153.5 38.5t57.5 116.5q0 75 -42 118t-134 75l-127 45q-114 43 -168.5 111t-54.5 169q0 53 20 103.5t59 93t103.5 68.5t145.5 26q96 0 180.5 -27.5t138.5 -80.5l-92 -121q-112 98 -232 98q-76 0 -123 -38.5t-47 -100.5 q0 -61 37 -98.5t119 -67.5l131 -51q242 -91 242 -299q0 -98 -52.5 -170.5t-135 -108t-181.5 -35.5q-232 0 -373 154z" />
<glyph unicode="t" horiz-adv-x="720" d="M66 909v133h165v297h168v-297h265v-133h-265v-663q0 -60 31 -88.5t98 -28.5q52 0 123 23v-138q-92 -32 -180 -32q-47 0 -86.5 9.5t-76 32t-57 66t-20.5 105.5v714h-165z" />
<glyph unicode="u" horiz-adv-x="1032" d="M141 248v801h166v-752q0 -99 40.5 -143.5t127.5 -44.5q100 0 175 80.5t75 193.5v666h166v-1049h-152l-6 176h-4q-38 -91 -125 -146t-188 -55q-120 0 -197.5 75t-77.5 198z" />
<glyph unicode="v" horiz-adv-x="886" d="M43 1049h178l225 -822h5l233 822h158l-324 -1051h-160z" />
<glyph unicode="w" horiz-adv-x="1378" d="M57 1049h172l174 -779h7l206 779h166l199 -779h4l184 779h154l-268 -1051h-154l-207 848h-6l-217 -848h-154z" />
<glyph unicode="x" horiz-adv-x="868" d="M29 0l315 541l-285 508h181l213 -396l211 396h163l-288 -504l301 -545h-176l-236 432l-235 -432h-164z" />
<glyph unicode="y" horiz-adv-x="897" d="M45 1049h174l244 -805h2l240 805h151l-364 -1166q-80 -272 -295 -272q-68 0 -134 16l7 140q69 -15 112 -15q55 0 90.5 29.5t59.5 99.5l45 150z" />
<glyph unicode="z" horiz-adv-x="858" d="M84 0v104l494 816h-482v129h676l-2 -111l-483 -809h485v-129h-688z" />
<glyph unicode="{" horiz-adv-x="559" d="M84 535v108q48 9 66 30t18 62v582q0 70 35.5 106.5t97.5 36.5h221v-102h-176q-19 0 -28 -10.5t-9 -36.5v-568q0 -112 -82 -145v-6q46 -20 64 -53.5t18 -96.5v-655q0 -45 37 -45h176v-102h-225q-59 0 -94 35.5t-35 103.5v651q0 51 -19.5 76t-64.5 29z" />
<glyph unicode="|" horiz-adv-x="522" d="M207 -106v1574h108v-1574h-108z" />
<glyph unicode="}" horiz-adv-x="559" d="M37 -258h176q37 0 37 45v655q0 62 18.5 96t63.5 54v6q-82 33 -82 145v572q0 45 -37 45h-176v102h221q62 0 97.5 -36t35.5 -105v-586q0 -42 17 -62.5t65 -29.5v-108q-45 -4 -63.5 -28.5t-18.5 -76.5v-651q0 -69 -35.5 -104t-97.5 -35h-221v102z" />
<glyph unicode="~" d="M139 543q12 84 55.5 139t118.5 55q51 0 240 -33.5t240 -33.5q33 0 53 23.5t35 68.5l86 -21q-15 -86 -58 -141t-116 -55q-49 0 -241.5 34.5t-242.5 34.5q-37 0 -54 -21.5t-30 -66.5z" />
<glyph unicode="&#xa1;" horiz-adv-x="485" d="M160 170l26 545h109l27 -545v-510h-162v510zM162 883v237h162v-237h-162z" />
<glyph unicode="&#xa2;" horiz-adv-x="968" d="M121 391v342q0 161 86 258t231 111v151h131v-151q138 -15 212.5 -94.5t74.5 -194.5v-74h-151v70q0 69 -48 122.5t-155 53.5q-111 0 -163 -68t-52 -176v-350q0 -113 50.5 -180.5t164.5 -67.5q57 0 99 17.5t63.5 46t31 58.5t9.5 61v69h151v-80q0 -119 -74 -196t-213 -92 v-160h-131v160q-152 12 -234.5 105t-82.5 259z" />
<glyph unicode="&#xa3;" horiz-adv-x="1085" d="M100 0v141h148v543h-131v107h131v327q0 96 31.5 169t86 115t120.5 62.5t141 20.5q156 0 247 -78.5t91 -226.5v-93h-144v95q0 88 -53 131t-145 43t-149.5 -53t-57.5 -162v-350h377v-107h-377v-543h583l-32 -141h-867z" />
<glyph unicode="&#xa4;" horiz-adv-x="718" d="M70 932l65 65l72 -71q71 49 149 49q85 0 150 -45l72 74l67 -66l-74 -72q54 -77 54 -157q0 -79 -52 -150l74 -72l-63 -65l-72 72q-70 -45 -152 -45q-80 0 -147 40l-72 -73l-65 67l71 74q-51 70 -51 156q0 83 47 145zM190 707q0 -71 47.5 -124t120.5 -53q80 0 125 50 t45 133q0 77 -48.5 128.5t-119.5 51.5q-79 0 -124.5 -50.5t-45.5 -135.5z" />
<glyph unicode="&#xa5;" horiz-adv-x="1060" d="M47 1460h189l305 -676l301 676h174l-369 -796h311v-117h-337v-547h-179v547h-336v117h310z" />
<glyph unicode="&#xa6;" horiz-adv-x="526" d="M205 -102v743h117v-743h-117zM205 778v684h117v-684h-117z" />
<glyph unicode="&#xa7;" horiz-adv-x="946" d="M88 135v55h127v-28q0 -97 70.5 -153t193.5 -56q109 0 174.5 55.5t65.5 141.5q0 26 -7 48t-14.5 37.5t-26.5 31t-28.5 23t-36.5 19.5t-34 15t-37 14q-45 14 -170 55q-246 82 -246 277q0 73 43.5 144t128.5 118q-93 49 -130.5 105.5t-37.5 140.5q0 125 90.5 207.5 t263.5 82.5q164 0 257 -75t93 -211v-49h-120v47q0 83 -60.5 134.5t-165.5 51.5q-104 0 -166.5 -47.5t-62.5 -132.5q0 -115 160 -180l180 -70q42 -15 75 -30.5t68.5 -39.5t59 -51.5t38.5 -66.5t15 -84q0 -80 -44.5 -146.5t-133.5 -109.5q91 -37 139 -99t45 -143 q0 -141 -108 -230.5t-283 -89.5q-53 0 -103.5 9t-100.5 30.5t-87.5 53.5t-60.5 82.5t-23 113.5zM250 678q0 -65 47 -108t104 -60l148 -49q76 24 120 73.5t44 118.5q0 105 -156 166q-142 54 -158 58q-60 -27 -104.5 -79.5t-44.5 -119.5z" />
<glyph unicode="&#xa8;" horiz-adv-x="739" d="M135 1229v223h146v-223h-146zM461 1229v223h145v-223h-145z" />
<glyph unicode="&#xa9;" horiz-adv-x="1714" d="M113 715q0 221 90.5 404t261 293t389.5 110q173 0 316 -64.5t237 -175.5t145.5 -257t51.5 -310q0 -133 -32 -254.5t-95.5 -223t-152 -176.5t-209.5 -117t-261 -42q-141 0 -260.5 40t-207.5 112.5t-150 173.5t-92.5 224t-30.5 263zM217 715q0 -169 48.5 -307t134.5 -230 t204 -142t256 -50q134 0 251 52.5t202.5 146t134.5 230.5t49 300q0 168 -50.5 306t-137.5 228.5t-204 139.5t-251 49t-250.5 -51t-202 -143.5t-135 -229t-49.5 -299.5zM502 508v393q0 168 97 262t259 94q158 0 250 -78t92 -208v-107h-133v105q0 29 -10.5 56.5t-32.5 53.5 t-64 42t-98 16q-111 0 -163 -67t-52 -175v-383q0 -236 215 -236q56 0 98 16.5t64 43t32.5 54t10.5 56.5v105h133v-109q0 -129 -92 -208.5t-250 -79.5q-167 0 -261.5 91.5t-94.5 262.5z" />
<glyph unicode="&#xaa;" horiz-adv-x="679" d="M74 973q0 57 25 100.5t65.5 67.5t85.5 35.5t92 11.5h107v100q0 52 -30.5 79.5t-86.5 27.5q-52 0 -85.5 -26t-33.5 -71v-36h-115v36q0 89 69.5 137t176.5 48q101 0 165 -48t64 -143v-338q0 -30 9 -161h-119q0 19 -6 94q-31 -57 -85.5 -83t-107.5 -26q-79 0 -134.5 51 t-55.5 144zM111 569v117h469v-117h-469zM205 989q0 -58 30 -87.5t80 -29.5q55 0 94.5 41t39.5 103v96h-101q-143 0 -143 -123z" />
<glyph unicode="&#xab;" horiz-adv-x="892" d="M59 555l250 338l94 -62l-163 -274l168 -278l-97 -58zM436 555l248 338l94 -62l-164 -274l168 -278l-96 -58z" />
<glyph unicode="&#xac;" horiz-adv-x="1062" d="M86 584v110h864v-362h-123v252h-741z" />
<glyph unicode="&#xad;" horiz-adv-x="598" d="M82 543v131h434v-131h-434z" />
<glyph unicode="&#xae;" horiz-adv-x="1048" d="M82 1067q0 200 123 332.5t317 132.5q198 0 320.5 -131t122.5 -334q0 -126 -53.5 -230t-156.5 -167.5t-235 -63.5q-133 0 -234 63t-152.5 167t-51.5 231zM162 1067q0 -177 106.5 -285t251.5 -108q151 0 260 108.5t109 284.5q0 180 -107.5 289.5t-261.5 109.5 q-152 0 -255 -108.5t-103 -290.5zM346 797v563h195q86 0 134 -46.5t48 -121.5q0 -60 -33 -104.5t-90 -61.5l145 -229h-94l-135 219h-82v-219h-88zM434 1083h90q113 0 113 105q0 44 -30.5 73t-84.5 29h-88v-207z" />
<glyph unicode="&#xaf;" horiz-adv-x="788" d="M111 1235v123h567v-123h-567z" />
<glyph unicode="&#xb0;" horiz-adv-x="593" d="M86 1280q0 87 61 149t148 62q92 0 152.5 -61t60.5 -146q0 -88 -61.5 -148.5t-151.5 -60.5q-91 0 -150 60t-59 145zM174 1280q0 -53 34.5 -91t86.5 -38q55 0 91 38t36 91q0 55 -35.5 94t-91.5 39q-52 0 -86.5 -38t-34.5 -95z" />
<glyph unicode="&#xb1;" d="M156 117v114h792v-114h-792zM156 709v114h342v336h112v-336h340v-114h-340v-328h-112v328h-342z" />
<glyph unicode="&#xb2;" horiz-adv-x="626" d="M82 1354v39q0 98 64 152t169 54q110 0 171 -60.5t61 -160.5q0 -53 -13 -100t-45.5 -99t-54 -81t-72.5 -92l-100 -127h299v-101h-463v78l176 209q74 94 113 165t39 140v6q-2 56 -30 89.5t-85 33.5q-54 0 -83 -30.5t-29 -82.5v-32h-117z" />
<glyph unicode="&#xb3;" horiz-adv-x="657" d="M80 956v33h117v-26q0 -52 36 -81.5t89 -29.5q61 0 94 38t33 109q0 40 -14.5 70.5t-37 45t-43 21.5t-39.5 7h-73v88h63q61 0 96 34.5t35 104.5q0 66 -34.5 97.5t-84.5 31.5q-54 0 -85 -28t-31 -82v-25h-115v33q0 95 62.5 148.5t173.5 53.5q114 0 174.5 -60t60.5 -150 q0 -67 -32.5 -123t-94.5 -74v-4q68 -17 108 -72t40 -125q0 -114 -70 -175.5t-182 -61.5q-120 0 -183 56t-63 146z" />
<glyph unicode="&#xb4;" horiz-adv-x="542" d="M133 1182l180 303h172l-223 -303h-129z" />
<glyph unicode="&#xb5;" horiz-adv-x="1058" d="M145 -365v1416h168v-748q0 -94 51 -143t140 -49q93 0 162 77t69 189v674h170v-738q0 -54 26.5 -95t74.5 -58l-2 -166q-187 49 -222 186q-38 -95 -111.5 -150t-174.5 -55q-156 0 -220 121h-4l39 -448z" />
<glyph unicode="&#xb6;" horiz-adv-x="1107" d="M115 958q0 99 27.5 190t76 160t121 110.5t156.5 41.5h522v-110h-139v-1516h-103v1516h-217v-1516h-102v647q-114 14 -192.5 83.5t-114 169.5t-35.5 224z" />
<glyph unicode="&#xb7;" horiz-adv-x="438" d="M133 571v238h172v-238h-172z" />
<glyph unicode="&#xb8;" horiz-adv-x="690" d="M145 -297q95 -25 170 -25q101 0 101 66q0 60 -113 70l-72 4l52 198h82l-35 -133q58 -2 101.5 -14t75.5 -43.5t32 -79.5q0 -66 -63 -110t-159 -44q-83 0 -172 25v86z" />
<glyph unicode="&#xb9;" horiz-adv-x="503" d="M92 1542l170 51h70v-815h-125v695l-101 -27z" />
<glyph unicode="&#xba;" horiz-adv-x="704" d="M98 1016v223q0 117 70.5 178.5t181.5 61.5q115 0 184.5 -59.5t69.5 -178.5v-225q0 -116 -70.5 -176t-181.5 -60q-118 0 -186 58.5t-68 177.5zM119 569v117h469v-117h-469zM225 1012q0 -135 127 -135q123 0 123 137v233q0 61 -29.5 98t-93.5 37t-95.5 -38t-31.5 -99v-233z " />
<glyph unicode="&#xbb;" horiz-adv-x="892" d="M59 836l99 59l250 -334l-248 -340l-97 62l166 276zM436 836l96 59l250 -334l-247 -340l-97 62l166 276z" />
<glyph unicode="&#xbc;" horiz-adv-x="1480" d="M158 1413l170 51h69v-815h-125v694l-100 -26zM268 -6l781 1476h98l-780 -1476h-99zM829 203v92l291 520h131l-299 -514h195v139l125 86v-225h94v-98h-94v-203h-125v203h-318z" />
<glyph unicode="&#xbd;" horiz-adv-x="1480" d="M154 1413l170 51h69v-815h-125v694l-100 -26zM266 -6l781 1476h98l-780 -1476h-99zM891 575v39q0 98 64 152.5t169 54.5q110 0 171 -60.5t61 -160.5q0 -53 -13 -100.5t-45 -99t-54.5 -81.5t-72.5 -92l-100 -127h299v-100h-463v78l176 209q74 94 113 165t39 140v6 q-2 56 -30 89.5t-85 33.5q-54 0 -83 -30.5t-29 -82.5v-33h-117z" />
<glyph unicode="&#xbe;" horiz-adv-x="1480" d="M111 827v33h116v-26q0 -52 36 -81.5t89 -29.5q61 0 94 38t33 109q0 40 -14.5 70.5t-36.5 45t-42.5 21.5t-39.5 7h-74v88h64q61 0 96 34.5t35 104.5q0 66 -34.5 97.5t-84.5 31.5q-54 0 -85.5 -28t-31.5 -82v-25h-114v33q0 95 62.5 148.5t172.5 53.5q114 0 175 -60t61 -150 q0 -67 -32.5 -123t-94.5 -74v-4q68 -17 107.5 -71.5t39.5 -125.5q0 -114 -70 -175.5t-182 -61.5q-120 0 -182.5 56t-62.5 146zM340 -6l780 1476h99l-781 -1476h-98zM848 203v92l291 520h131l-299 -514h194v139l125 86v-225h94v-98h-94v-203h-125v203h-317z" />
<glyph unicode="&#xbf;" horiz-adv-x="960" d="M115 -2q-1 65 13.5 122t44 106t56.5 82.5t68 76.5q6 7 27 29.5t28.5 31.5t24.5 30t25 35.5t18 35.5t15 42t7 44v84h150v-76q-5 -99 -40.5 -168t-102.5 -145q-40 -45 -53 -59.5t-42.5 -54t-40.5 -64.5t-21.5 -65t-10.5 -81q0 -105 56.5 -166t158.5 -61q84 0 145 54t61 157 v39h148v-33q0 -168 -103.5 -261t-265.5 -93q-172 0 -269 95.5t-97 262.5zM430 883v239h172v-239h-172z" />
<glyph unicode="&#xc0;" horiz-adv-x="1185" d="M53 0l439 1464h210l433 -1464h-179l-127 440h-483l-127 -440h-166zM291 1870h174l182 -303h-131zM383 580h408l-201 704h-2z" />
<glyph unicode="&#xc1;" horiz-adv-x="1185" d="M53 0l439 1464h210l433 -1464h-179l-127 440h-483l-127 -440h-166zM383 580h408l-201 704h-2zM553 1569l180 303h172l-223 -303h-129z" />
<glyph unicode="&#xc2;" horiz-adv-x="1185" d="M53 0l439 1464h210l433 -1464h-179l-127 440h-483l-127 -440h-166zM334 1567l192 309h123l189 -309h-140l-114 205l-117 -205h-133zM383 580h408l-201 704h-2z" />
<glyph unicode="&#xc3;" horiz-adv-x="1185" d="M53 0l439 1464h210l433 -1464h-179l-127 440h-483l-127 -440h-166zM262 1589q10 84 57.5 141.5t122.5 57.5q50 0 150.5 -38t150.5 -38q37 0 58.5 23.5t38.5 70.5l82 -18q-13 -84 -59.5 -139.5t-119.5 -55.5q-54 0 -156 37t-145 37q-29 0 -47.5 -13.5t-25.5 -29.5t-17 -49 zM383 580h408l-201 704h-2z" />
<glyph unicode="&#xc4;" horiz-adv-x="1185" d="M53 0l439 1464h210l433 -1464h-179l-127 440h-483l-127 -440h-166zM365 1618v223h145v-223h-145zM383 580h408l-201 704h-2zM690 1618v223h146v-223h-146z" />
<glyph unicode="&#xc5;" horiz-adv-x="1185" d="M53 0l439 1464h210l433 -1464h-179l-127 440h-483l-127 -440h-166zM383 580h408l-201 704h-2zM418 1706q0 77 50.5 130.5t125.5 53.5q83 0 131.5 -48t48.5 -126q0 -79 -50.5 -133.5t-127.5 -54.5q-83 0 -130.5 51t-47.5 127zM500 1706q0 -51 26 -79t68 -28q45 0 72.5 29 t27.5 82q0 52 -26.5 81.5t-75.5 29.5q-43 0 -67.5 -31.5t-24.5 -83.5z" />
<glyph unicode="&#xc6;" horiz-adv-x="1736" d="M45 0l690 1460h916v-149h-637v-484h506v-149h-506v-526h637v-152h-813v422l-416 2l-199 -424h-178zM481 559h357v752h-4z" />
<glyph unicode="&#xc7;" horiz-adv-x="1165" d="M119 412v635q0 199 135 318.5t350 119.5q198 0 322.5 -105t124.5 -274v-109h-158v78q0 118 -75.5 190t-217.5 72q-144 0 -223.5 -82t-79.5 -217v-608q0 -155 83 -230t226 -75q134 0 210.5 68.5t76.5 179.5v92h158v-105q0 -167 -111 -269.5t-295 -113.5l-24 -94 q208 -8 208 -137q0 -66 -62.5 -110t-158.5 -44q-83 0 -172 25v86q95 -25 170 -25q101 0 101 66q0 60 -113 70l-72 4l41 159q-201 11 -322.5 121.5t-121.5 313.5z" />
<glyph unicode="&#xc8;" horiz-adv-x="1071" d="M156 0v1460h813v-151h-635v-480h506v-149h-506v-528h635v-152h-813zM313 1872h174l183 -303h-131z" />
<glyph unicode="&#xc9;" horiz-adv-x="1071" d="M156 0v1460h813v-151h-635v-480h506v-149h-506v-528h635v-152h-813zM492 1569l180 303h172l-223 -303h-129z" />
<glyph unicode="&#xca;" horiz-adv-x="1071" d="M156 0v1460h813v-151h-635v-480h506v-149h-506v-528h635v-152h-813zM322 1567l192 309h123l188 -309h-139l-115 205l-116 -205h-133z" />
<glyph unicode="&#xcb;" horiz-adv-x="1071" d="M156 0v1460h813v-151h-635v-480h506v-149h-506v-528h635v-152h-813zM352 1616v223h146v-223h-146zM678 1616v223h145v-223h-145z" />
<glyph unicode="&#xcc;" horiz-adv-x="464" d="M-72 1872h174l183 -303h-131zM147 0v1460h179v-1460h-179z" />
<glyph unicode="&#xcd;" horiz-adv-x="464" d="M147 0v1460h179v-1460h-179zM186 1569l181 303h172l-224 -303h-129z" />
<glyph unicode="&#xce;" horiz-adv-x="464" d="M-12 1567l192 309h123l189 -309h-140l-114 205l-117 -205h-133zM147 0v1460h179v-1460h-179z" />
<glyph unicode="&#xcf;" horiz-adv-x="464" d="M12 1616v223h146v-223h-146zM147 0v1460h179v-1460h-179zM338 1616v223h145v-223h-145z" />
<glyph unicode="&#xd0;" horiz-adv-x="1243" d="M66 696v123h124v641h484q133 0 232.5 -43t158.5 -135.5t59 -226.5v-625q0 -208 -123.5 -319t-326.5 -111h-484v696h-124zM369 147h282q76 0 133.5 23.5t91.5 64t51 90t17 105.5v602q0 125 -73 203t-216 78h-286v-494h323v-123h-323v-549z" />
<glyph unicode="&#xd1;" horiz-adv-x="1261" d="M156 0v1460h178l612 -1106h4v1106h158v-1460h-154l-637 1161h-4v-1161h-157zM326 1589q10 84 57.5 141.5t122.5 57.5q50 0 150.5 -38t150.5 -38q37 0 58 23.5t38 70.5l82 -18q-13 -84 -59 -139.5t-119 -55.5q-54 0 -156 37t-145 37q-29 0 -47.5 -13.5t-25.5 -29.5 t-17 -49z" />
<glyph unicode="&#xd2;" horiz-adv-x="1214" d="M119 422v596q0 220 135 344.5t352 124.5q105 0 192.5 -27t155 -80.5t105 -140t37.5 -197.5v-598q0 -224 -136.5 -346.5t-351.5 -122.5q-105 0 -192.5 27t-154.5 80t-104.5 140t-37.5 200zM297 432q0 -140 82 -221.5t231 -81.5q143 0 225.5 84t82.5 221v608 q0 136 -85 214.5t-231 78.5t-225.5 -84.5t-79.5 -232.5v-586zM326 1872h174l182 -303h-131z" />
<glyph unicode="&#xd3;" horiz-adv-x="1214" d="M119 422v596q0 220 135 344.5t352 124.5q105 0 192.5 -27t155 -80.5t105 -140t37.5 -197.5v-598q0 -224 -136.5 -346.5t-351.5 -122.5q-105 0 -192.5 27t-154.5 80t-104.5 140t-37.5 200zM297 432q0 -140 82 -221.5t231 -81.5q143 0 225.5 84t82.5 221v608 q0 136 -85 214.5t-231 78.5t-225.5 -84.5t-79.5 -232.5v-586zM526 1569l181 303h172l-224 -303h-129z" />
<glyph unicode="&#xd4;" horiz-adv-x="1214" d="M119 422v596q0 220 135 344.5t352 124.5q105 0 192.5 -27t155 -80.5t105 -140t37.5 -197.5v-598q0 -224 -136.5 -346.5t-351.5 -122.5q-105 0 -192.5 27t-154.5 80t-104.5 140t-37.5 200zM297 432q0 -140 82 -221.5t231 -81.5q143 0 225.5 84t82.5 221v608 q0 136 -85 214.5t-231 78.5t-225.5 -84.5t-79.5 -232.5v-586zM352 1567l193 309h123l188 -309h-139l-115 205l-117 -205h-133z" />
<glyph unicode="&#xd5;" horiz-adv-x="1214" d="M119 422v596q0 220 135 344.5t352 124.5q105 0 192.5 -27t155 -80.5t105 -140t37.5 -197.5v-598q0 -224 -136.5 -346.5t-351.5 -122.5q-105 0 -192.5 27t-154.5 80t-104.5 140t-37.5 200zM266 1589q10 84 57.5 141.5t122.5 57.5q50 0 151 -38t151 -38q37 0 58 23.5 t38 70.5l82 -18q-13 -84 -59 -139.5t-119 -55.5q-54 0 -156.5 37t-145.5 37q-29 0 -47.5 -13.5t-25.5 -29.5t-17 -49zM297 432q0 -140 82 -221.5t231 -81.5q143 0 225.5 84t82.5 221v608q0 136 -85 214.5t-231 78.5t-225.5 -84.5t-79.5 -232.5v-586z" />
<glyph unicode="&#xd6;" horiz-adv-x="1214" d="M119 422v596q0 220 135 344.5t352 124.5q105 0 192.5 -27t155 -80.5t105 -140t37.5 -197.5v-598q0 -224 -136.5 -346.5t-351.5 -122.5q-105 0 -192.5 27t-154.5 80t-104.5 140t-37.5 200zM297 432q0 -140 82 -221.5t231 -81.5q143 0 225.5 84t82.5 221v608 q0 136 -85 214.5t-231 78.5t-225.5 -84.5t-79.5 -232.5v-586zM377 1616v223h145v-223h-145zM702 1616v223h146v-223h-146z" />
<glyph unicode="&#xd7;" d="M180 948l82 82l295 -295q14 16 144 146.5t145 146.5l80 -82l-291 -291q42 -44 146 -149t145 -148l-80 -79l-289 292q-49 -46 -155.5 -155.5t-139.5 -141.5l-80 82l293 297z" />
<glyph unicode="&#xd8;" horiz-adv-x="1208" d="M117 422v596q0 220 135 344.5t352 124.5q170 0 289 -70l65 135l97 -41l-76 -157q115 -118 115 -312v-598q0 -224 -136.5 -346.5t-351.5 -122.5q-149 0 -266 54l-72 -150l-94 43l80 164q-137 118 -137 336zM295 432q0 -102 43 -172l483 1006q-84 69 -221 69 q-146 0 -225.5 -84.5t-79.5 -232.5v-586zM414 180q76 -51 194 -51q143 0 225 84t82 221v608q0 70 -24 129z" />
<glyph unicode="&#xd9;" horiz-adv-x="1245" d="M145 414v1046h177v-1026q0 -84 25.5 -146.5t70 -97t97 -51t114.5 -16.5q140 0 221.5 82.5t77.5 220.5v1034h170v-1038q1 -209 -133 -328t-349 -119q-98 0 -180.5 25t-149 76.5t-104 137.5t-37.5 200zM358 1866h174l183 -303h-131z" />
<glyph unicode="&#xda;" horiz-adv-x="1245" d="M145 414v1046h177v-1026q0 -84 25.5 -146.5t70 -97t97 -51t114.5 -16.5q140 0 221.5 82.5t77.5 220.5v1034h170v-1038q1 -209 -133 -328t-349 -119q-98 0 -180.5 25t-149 76.5t-104 137.5t-37.5 200zM573 1565l181 303h172l-224 -303h-129z" />
<glyph unicode="&#xdb;" horiz-adv-x="1245" d="M145 414v1046h177v-1026q0 -84 25.5 -146.5t70 -97t97 -51t114.5 -16.5q140 0 221.5 82.5t77.5 220.5v1034h170v-1038q1 -209 -133 -328t-349 -119q-98 0 -180.5 25t-149 76.5t-104 137.5t-37.5 200zM387 1563l193 309h122l189 -309h-139l-115 204l-117 -204h-133z" />
<glyph unicode="&#xdc;" horiz-adv-x="1245" d="M145 414v1046h177v-1026q0 -84 25.5 -146.5t70 -97t97 -51t114.5 -16.5q140 0 221.5 82.5t77.5 220.5v1034h170v-1038q1 -209 -133 -328t-349 -119q-98 0 -180.5 25t-149 76.5t-104 137.5t-37.5 200zM416 1616v223h145v-223h-145zM741 1616v223h146v-223h-146z" />
<glyph unicode="&#xdd;" horiz-adv-x="1071" d="M53 1460h185l309 -680l303 680h170l-395 -848v-612h-179v614zM494 1561l180 303h172l-223 -303h-129z" />
<glyph unicode="&#xde;" horiz-adv-x="1136" d="M156 0v1460h176v-280h282q138 0 234.5 -57t141 -150.5t44.5 -214.5q0 -200 -116.5 -320.5t-331.5 -120.5h-254v-317h-176zM332 451h217q150 0 229.5 77t79.5 226q0 127 -71.5 208.5t-198.5 81.5h-256v-593z" />
<glyph unicode="&#xdf;" horiz-adv-x="1234" d="M74 909v135h151v50q0 79 27.5 149t79 123.5t131.5 85t178 31.5q190 0 299 -103t109 -256q0 -113 -59.5 -210.5t-174.5 -155.5v-2q92 -32 162 -82.5t109.5 -107.5t59 -114t19.5 -112q0 -171 -97.5 -268t-252.5 -97q-205 0 -336 140l88 108q63 -60 121 -90.5t131 -30.5 q97 0 145 59t48 154q0 74 -33 137t-88.5 106t-123 71.5t-142.5 40.5v137l51 2q99 47 153 126.5t54 172.5q0 114 -66 179t-186 65q-117 0 -178.5 -68.5t-61.5 -179.5v-1104h-166v909h-151z" />
<glyph unicode="&#xe0;" horiz-adv-x="976" d="M90 276q0 72 24.5 130t64.5 95.5t92.5 63t106.5 36.5t109 11h187v170q0 85 -52.5 127.5t-144.5 42.5q-87 0 -146 -41.5t-59 -117.5v-58h-149v64q0 130 105 202t266 72q152 0 250 -72.5t98 -214.5v-524q0 -17 10 -262h-154q-5 65 -8 162h-6q-24 -52 -62 -90.5t-81 -58 t-82.5 -28t-77.5 -8.5q-123 0 -207 78t-84 221zM211 1485h174l182 -303h-131zM260 301q0 -96 51.5 -146.5t130.5 -50.5q95 0 163.5 71t68.5 175v152h-166q-38 0 -71 -5t-66.5 -19t-57 -36t-38.5 -58t-15 -83z" />
<glyph unicode="&#xe1;" horiz-adv-x="976" d="M90 276q0 72 24.5 130t64.5 95.5t92.5 63t106.5 36.5t109 11h187v170q0 85 -52.5 127.5t-144.5 42.5q-87 0 -146 -41.5t-59 -117.5v-58h-149v64q0 130 105 202t266 72q152 0 250 -72.5t98 -214.5v-524q0 -17 10 -262h-154q-5 65 -8 162h-6q-24 -52 -62 -90.5t-81 -58 t-82.5 -28t-77.5 -8.5q-123 0 -207 78t-84 221zM260 301q0 -96 51.5 -146.5t130.5 -50.5q95 0 163.5 71t68.5 175v152h-166q-38 0 -71 -5t-66.5 -19t-57 -36t-38.5 -58t-15 -83zM395 1182l180 303h173l-224 -303h-129z" />
<glyph unicode="&#xe2;" horiz-adv-x="976" d="M90 276q0 72 24.5 130t64.5 95.5t92.5 63t106.5 36.5t109 11h187v170q0 85 -52.5 127.5t-144.5 42.5q-87 0 -146 -41.5t-59 -117.5v-58h-149v64q0 130 105 202t266 72q152 0 250 -72.5t98 -214.5v-524q0 -17 10 -262h-154q-5 65 -8 162h-6q-24 -52 -62 -90.5t-81 -58 t-82.5 -28t-77.5 -8.5q-123 0 -207 78t-84 221zM219 1180l193 309h123l188 -309h-139l-115 204l-117 -204h-133zM260 301q0 -96 51.5 -146.5t130.5 -50.5q95 0 163.5 71t68.5 175v152h-166q-38 0 -71 -5t-66.5 -19t-57 -36t-38.5 -58t-15 -83z" />
<glyph unicode="&#xe3;" horiz-adv-x="976" d="M90 276q0 72 24.5 130t64.5 95.5t92.5 63t106.5 36.5t109 11h187v170q0 85 -52.5 127.5t-144.5 42.5q-87 0 -146 -41.5t-59 -117.5v-58h-149v64q0 130 105 202t266 72q152 0 250 -72.5t98 -214.5v-524q0 -17 10 -262h-154q-5 65 -8 162h-6q-24 -52 -62 -90.5t-81 -58 t-82.5 -28t-77.5 -8.5q-123 0 -207 78t-84 221zM150 1202q10 84 57.5 141.5t122.5 57.5q50 0 150.5 -38t150.5 -38q37 0 58 23.5t38 70.5l82 -18q-13 -84 -59 -139.5t-119 -55.5q-54 0 -156 37t-145 37q-29 0 -47.5 -13.5t-25.5 -29.5t-17 -49zM260 301q0 -96 51.5 -146.5 t130.5 -50.5q95 0 163.5 71t68.5 175v152h-166q-38 0 -71 -5t-66.5 -19t-57 -36t-38.5 -58t-15 -83z" />
<glyph unicode="&#xe4;" horiz-adv-x="976" d="M90 276q0 72 24.5 130t64.5 95.5t92.5 63t106.5 36.5t109 11h187v170q0 85 -52.5 127.5t-144.5 42.5q-87 0 -146 -41.5t-59 -117.5v-58h-149v64q0 130 105 202t266 72q152 0 250 -72.5t98 -214.5v-524q0 -17 10 -262h-154q-5 65 -8 162h-6q-24 -52 -62 -90.5t-81 -58 t-82.5 -28t-77.5 -8.5q-123 0 -207 78t-84 221zM250 1229v223h145v-223h-145zM260 301q0 -96 51.5 -146.5t130.5 -50.5q95 0 163.5 71t68.5 175v152h-166q-38 0 -71 -5t-66.5 -19t-57 -36t-38.5 -58t-15 -83zM575 1229v223h146v-223h-146z" />
<glyph unicode="&#xe5;" horiz-adv-x="976" d="M90 276q0 72 24.5 130t64.5 95.5t92.5 63t106.5 36.5t109 11h187v170q0 85 -52.5 127.5t-144.5 42.5q-87 0 -146 -41.5t-59 -117.5v-58h-149v64q0 130 105 202t266 72q152 0 250 -72.5t98 -214.5v-524q0 -17 10 -262h-154q-5 65 -8 162h-6q-24 -52 -62 -90.5t-81 -58 t-82.5 -28t-77.5 -8.5q-123 0 -207 78t-84 221zM260 301q0 -96 51.5 -146.5t130.5 -50.5q95 0 163.5 71t68.5 175v152h-166q-38 0 -71 -5t-66.5 -19t-57 -36t-38.5 -58t-15 -83zM305 1335q0 77 51 131t125 54q84 0 132.5 -48t48.5 -126q0 -79 -51 -134t-128 -55 q-83 0 -130.5 51t-47.5 127zM387 1335q0 -51 25.5 -78.5t68.5 -27.5q46 0 73.5 28.5t27.5 81.5q0 52 -27 81.5t-76 29.5q-43 0 -67.5 -31.5t-24.5 -83.5z" />
<glyph unicode="&#xe6;" horiz-adv-x="1521" d="M90 276q0 72 24.5 130t64.5 95.5t92.5 63t106.5 36.5t109 11h187v170q0 85 -54 127.5t-147 42.5q-86 0 -143.5 -41.5t-57.5 -117.5v-58h-149v64q0 130 103.5 202t265.5 72q101 0 176 -34t104 -105q95 139 295 139q166 0 263 -98t97 -273v-210h-587v-140q0 -237 260 -237 q122 0 248 73l59 -112q-123 -101 -336 -101q-268 0 -344 205q-27 -61 -72 -104.5t-94.5 -64t-90.5 -28.5t-79 -8q-127 0 -214 79t-87 222zM260 301q0 -97 51.5 -147t132.5 -50q94 0 162 69.5t68 174.5v154h-150q-264 0 -264 -201zM840 612h428v101q0 99 -51 166t-162 67 q-104 0 -159.5 -67.5t-55.5 -161.5v-105z" />
<glyph unicode="&#xe7;" horiz-adv-x="935" d="M111 348v346q0 180 104 279.5t268 99.5q168 0 263.5 -83t95.5 -218v-57h-154v49q0 30 -10 59.5t-31.5 57t-63 44.5t-96.5 17q-109 0 -160 -65t-51 -172v-361q0 -112 53 -175t167 -63q57 0 97 17.5t59.5 47.5t27.5 59.5t8 62.5v45h154v-62q0 -123 -79 -204.5t-224 -94.5 l-25 -94q58 -2 101.5 -14t75.5 -43.5t32 -79.5q0 -66 -62.5 -110t-158.5 -44q-83 0 -172 25v86q95 -25 170 -25q100 0 100 66q0 60 -113 70l-71 4l41 159q-162 8 -254 102t-92 269z" />
<glyph unicode="&#xe8;" horiz-adv-x="964" d="M111 356v312q0 191 109.5 298t279.5 107q169 0 266.5 -100t97.5 -275v-211h-585v-131q0 -241 253 -241q53 0 105.5 13.5t78 25.5t68.5 34l60 -112q-131 -101 -338 -101q-181 0 -288 94t-107 287zM229 1485h174l183 -303h-131zM279 606h426v107q0 63 -19 113t-69.5 85 t-127.5 35q-103 0 -156.5 -68t-53.5 -163v-109z" />
<glyph unicode="&#xe9;" horiz-adv-x="964" d="M111 356v312q0 191 109.5 298t279.5 107q169 0 266.5 -100t97.5 -275v-211h-585v-131q0 -241 253 -241q53 0 105.5 13.5t78 25.5t68.5 34l60 -112q-131 -101 -338 -101q-181 0 -288 94t-107 287zM279 606h426v107q0 63 -19 113t-69.5 85t-127.5 35q-103 0 -156.5 -68 t-53.5 -163v-109zM434 1182l180 303h172l-223 -303h-129z" />
<glyph unicode="&#xea;" horiz-adv-x="964" d="M111 356v312q0 191 109.5 298t279.5 107q169 0 266.5 -100t97.5 -275v-211h-585v-131q0 -241 253 -241q53 0 105.5 13.5t78 25.5t68.5 34l60 -112q-131 -101 -338 -101q-181 0 -288 94t-107 287zM242 1180l192 309h123l188 -309h-139l-114 204l-117 -204h-133zM279 606 h426v107q0 63 -19 113t-69.5 85t-127.5 35q-103 0 -156.5 -68t-53.5 -163v-109z" />
<glyph unicode="&#xeb;" horiz-adv-x="964" d="M111 356v312q0 191 109.5 298t279.5 107q169 0 266.5 -100t97.5 -275v-211h-585v-131q0 -241 253 -241q53 0 105.5 13.5t78 25.5t68.5 34l60 -112q-131 -101 -338 -101q-181 0 -288 94t-107 287zM258 1229v223h145v-223h-145zM279 606h426v107q0 63 -19 113t-69.5 85 t-127.5 35q-103 0 -156.5 -68t-53.5 -163v-109zM584 1229v223h145v-223h-145z" />
<glyph unicode="&#xec;" horiz-adv-x="458" d="M-74 1485h174l183 -303h-131zM147 0v1049h166v-1049h-166z" />
<glyph unicode="&#xed;" horiz-adv-x="458" d="M147 0v1049h166v-1049h-166zM164 1182l180 303h172l-223 -303h-129z" />
<glyph unicode="&#xee;" horiz-adv-x="458" d="M-23 1180l193 309h123l188 -309h-139l-115 204l-116 -204h-134zM147 0v1049h166v-1049h-166z" />
<glyph unicode="&#xef;" horiz-adv-x="458" d="M6 1229v223h146v-223h-146zM147 0v1049h166v-1049h-166zM332 1229v223h145v-223h-145z" />
<glyph unicode="&#xf0;" horiz-adv-x="989" d="M111 340v346q0 167 98 265t248 100q56 0 104 -21l-123 193l-227 -66l-45 96l207 62l-88 137l172 45l84 -133l215 63l43 -96l-195 -59q169 -260 209 -328q30 -47 48 -113.5t18 -134.5v-344q0 -186 -103.5 -281.5t-281.5 -95.5q-177 0 -280 91t-103 274zM276 338 q0 -105 54.5 -168.5t165.5 -63.5q215 0 215 242v342q0 108 -50 172t-159 64q-111 0 -168.5 -66.5t-57.5 -177.5v-344z" />
<glyph unicode="&#xf1;" horiz-adv-x="1034" d="M147 0v1049h156v-175h4q49 100 134 149.5t190 49.5q117 0 191.5 -78.5t74.5 -195.5v-799h-166v758q0 97 -43 139.5t-129 42.5q-93 0 -169.5 -79t-76.5 -189v-672h-166zM215 1202q10 84 57.5 141.5t122.5 57.5q50 0 150.5 -38t150.5 -38q37 0 58.5 23.5t38.5 70.5l81 -18 q-13 -84 -59 -139.5t-119 -55.5q-54 0 -156 37t-145 37q-29 0 -47.5 -13.5t-25.5 -29.5t-17 -49z" />
<glyph unicode="&#xf2;" horiz-adv-x="989" d="M111 354v334q0 182 107 283.5t274 101.5q174 0 280.5 -97.5t106.5 -281.5v-334q0 -189 -106 -287t-277 -98q-175 0 -280 97t-105 282zM207 1485h174l182 -303h-131zM276 354q0 -117 54.5 -181t167.5 -64q215 0 215 247v349q0 106 -55 171.5t-166 65.5t-163.5 -68.5 t-52.5 -179.5v-340z" />
<glyph unicode="&#xf3;" horiz-adv-x="989" d="M111 354v334q0 182 107 283.5t274 101.5q174 0 280.5 -97.5t106.5 -281.5v-334q0 -189 -106 -287t-277 -98q-175 0 -280 97t-105 282zM276 354q0 -117 54.5 -181t167.5 -64q215 0 215 247v349q0 106 -55 171.5t-166 65.5t-163.5 -68.5t-52.5 -179.5v-340zM414 1182 l180 303h172l-223 -303h-129z" />
<glyph unicode="&#xf4;" horiz-adv-x="989" d="M111 354v334q0 182 107 283.5t274 101.5q174 0 280.5 -97.5t106.5 -281.5v-334q0 -189 -106 -287t-277 -98q-175 0 -280 97t-105 282zM246 1180l192 309h123l189 -309h-140l-114 204l-117 -204h-133zM276 354q0 -117 54.5 -181t167.5 -64q215 0 215 247v349 q0 106 -55 171.5t-166 65.5t-163.5 -68.5t-52.5 -179.5v-340z" />
<glyph unicode="&#xf5;" horiz-adv-x="989" d="M111 354v334q0 182 107 283.5t274 101.5q174 0 280.5 -97.5t106.5 -281.5v-334q0 -189 -106 -287t-277 -98q-175 0 -280 97t-105 282zM160 1202q10 84 57.5 141.5t122.5 57.5q50 0 150.5 -38t150.5 -38q37 0 58 23.5t38 70.5l82 -18q-13 -84 -59 -139.5t-119 -55.5 q-54 0 -156 37t-145 37q-29 0 -47.5 -13.5t-25.5 -29.5t-17 -49zM276 354q0 -117 54.5 -181t167.5 -64q215 0 215 247v349q0 106 -55 171.5t-166 65.5t-163.5 -68.5t-52.5 -179.5v-340z" />
<glyph unicode="&#xf6;" horiz-adv-x="989" d="M111 354v334q0 182 107 283.5t274 101.5q174 0 280.5 -97.5t106.5 -281.5v-334q0 -189 -106 -287t-277 -98q-175 0 -280 97t-105 282zM264 1229v223h146v-223h-146zM276 354q0 -117 54.5 -181t167.5 -64q215 0 215 247v349q0 106 -55 171.5t-166 65.5t-163.5 -68.5 t-52.5 -179.5v-340zM590 1229v223h145v-223h-145z" />
<glyph unicode="&#xf7;" d="M156 594v117h792v-117h-792zM479 219v211h156v-211h-156zM479 852v211h156v-211h-156z" />
<glyph unicode="&#xf8;" horiz-adv-x="989" d="M111 354v334q0 182 107 283.5t274 101.5q119 0 208 -47l60 121l88 -43l-68 -137q99 -102 99 -273v-334q0 -189 -106 -287t-277 -98q-95 0 -179 33l-63 -131l-86 41l65 137q-122 99 -122 299zM276 354q0 -94 31 -147l332 688q-57 47 -147 47q-111 0 -163.5 -68.5 t-52.5 -179.5v-340zM379 133q47 -24 119 -24q215 0 215 247v349q0 47 -13 94z" />
<glyph unicode="&#xf9;" horiz-adv-x="1032" d="M141 248v801h166v-752q0 -99 40.5 -143.5t127.5 -44.5q100 0 175 80.5t75 193.5v666h166v-1049h-152l-6 176h-4q-38 -91 -125 -146t-188 -55q-120 0 -197.5 75t-77.5 198zM236 1485h174l182 -303h-131z" />
<glyph unicode="&#xfa;" horiz-adv-x="1032" d="M141 248v801h166v-752q0 -99 40.5 -143.5t127.5 -44.5q100 0 175 80.5t75 193.5v666h166v-1049h-152l-6 176h-4q-38 -91 -125 -146t-188 -55q-120 0 -197.5 75t-77.5 198zM455 1182l180 303h172l-223 -303h-129z" />
<glyph unicode="&#xfb;" horiz-adv-x="1032" d="M141 248v801h166v-752q0 -99 40.5 -143.5t127.5 -44.5q100 0 175 80.5t75 193.5v666h166v-1049h-152l-6 176h-4q-38 -91 -125 -146t-188 -55q-120 0 -197.5 75t-77.5 198zM279 1180l192 309h123l188 -309h-139l-115 204l-116 -204h-133z" />
<glyph unicode="&#xfc;" horiz-adv-x="1032" d="M141 248v801h166v-752q0 -99 40.5 -143.5t127.5 -44.5q100 0 175 80.5t75 193.5v666h166v-1049h-152l-6 176h-4q-38 -91 -125 -146t-188 -55q-120 0 -197.5 75t-77.5 198zM295 1229v223h145v-223h-145zM621 1229v223h145v-223h-145z" />
<glyph unicode="&#xfd;" horiz-adv-x="897" d="M45 1049h174l244 -805h2l240 805h151l-364 -1166q-80 -272 -295 -272q-68 0 -134 16l7 140q69 -15 112 -15q55 0 90.5 29.5t59.5 99.5l45 150zM414 1182l180 303h172l-223 -303h-129z" />
<glyph unicode="&#xfe;" horiz-adv-x="1013" d="M147 -369v1829h166v-573h6q40 92 123.5 140t169.5 48q140 0 216.5 -89t76.5 -222v-451q0 -153 -91 -245.5t-224 -92.5q-84 0 -164 46.5t-109 128.5h-4v-519h-166zM313 387q0 -123 73 -206t167 -83q86 0 136 53.5t50 157.5v436q0 88 -47.5 141.5t-146.5 53.5 q-94 0 -163 -83t-69 -212v-258z" />
<glyph unicode="&#xff;" horiz-adv-x="897" d="M45 1049h174l244 -805h2l240 805h151l-364 -1166q-80 -272 -295 -272q-68 0 -134 16l7 140q69 -15 112 -15q55 0 90.5 29.5t59.5 99.5l45 150zM252 1229v223h145v-223h-145zM578 1229v223h145v-223h-145z" />
<glyph unicode="&#x152;" horiz-adv-x="1835" d="M119 424v598q0 220 128.5 342.5t342.5 122.5q109 0 196 -41t132 -117v131h813v-149h-637v-484h505v-149h-505v-526h639v-152h-815v145q-45 -78 -132.5 -123t-199.5 -45q-213 0 -340 111.5t-127 335.5zM297 432q0 -140 82.5 -223.5t230.5 -83.5q142 0 225 86t83 223v613 q0 136 -84.5 213t-231.5 77q-146 0 -225.5 -85t-79.5 -232v-588z" />
<glyph unicode="&#x153;" horiz-adv-x="1564" d="M111 354v334q0 182 107 283.5t274 101.5q200 0 305 -149q49 72 128 110.5t175 38.5q169 0 266.5 -102t97.5 -277v-207h-585v-135q0 -237 258 -237q124 0 247 71l60 -110q-131 -101 -336 -101q-104 0 -187 37t-128 107q-47 -68 -125.5 -106t-171.5 -38q-175 0 -280 97 t-105 282zM276 358q0 -117 54.5 -183t167.5 -66q215 0 215 247v349q0 106 -55 171.5t-166 65.5t-163.5 -68.5t-52.5 -179.5v-336zM879 606h426v107q0 100 -50.5 166.5t-162.5 66.5q-103 0 -158 -68t-55 -163v-109z" />
<glyph unicode="&#x178;" horiz-adv-x="1071" d="M53 1460h185l309 -680l303 680h170l-395 -848v-612h-179v614zM319 1614v223h146v-223h-146zM645 1614v223h146v-223h-146z" />
<glyph unicode="&#x2c6;" horiz-adv-x="743" d="M125 1180l192 309h123l189 -309h-140l-114 204l-117 -204h-133z" />
<glyph unicode="&#x2dc;" horiz-adv-x="798" d="M84 1202q10 84 57.5 141.5t122.5 57.5q50 0 150.5 -38t150.5 -38q37 0 58.5 23.5t38.5 70.5l81 -18q-13 -84 -59 -139.5t-119 -55.5q-54 0 -156 37t-145 37q-29 0 -47.5 -13.5t-25.5 -29.5t-17 -49z" />
<glyph unicode="&#x2000;" horiz-adv-x="945" />
<glyph unicode="&#x2001;" horiz-adv-x="1890" />
<glyph unicode="&#x2002;" horiz-adv-x="945" />
<glyph unicode="&#x2003;" horiz-adv-x="1890" />
<glyph unicode="&#x2004;" horiz-adv-x="630" />
<glyph unicode="&#x2005;" horiz-adv-x="472" />
<glyph unicode="&#x2006;" horiz-adv-x="315" />
<glyph unicode="&#x2007;" horiz-adv-x="315" />
<glyph unicode="&#x2008;" horiz-adv-x="236" />
<glyph unicode="&#x2009;" horiz-adv-x="378" />
<glyph unicode="&#x200a;" horiz-adv-x="105" />
<glyph unicode="&#x2010;" horiz-adv-x="598" d="M82 543v131h434v-131h-434z" />
<glyph unicode="&#x2011;" horiz-adv-x="598" d="M82 543v131h434v-131h-434z" />
<glyph unicode="&#x2012;" horiz-adv-x="598" d="M82 543v131h434v-131h-434z" />
<glyph unicode="&#x2013;" horiz-adv-x="944" d="M0 557v111h944v-111h-944z" />
<glyph unicode="&#x2014;" horiz-adv-x="1595" d="M0 557v111h1595v-111h-1595z" />
<glyph unicode="&#x2018;" horiz-adv-x="403" d="M121 1008v225l57 229h84l-41 -221h60v-233h-160z" />
<glyph unicode="&#x2019;" horiz-adv-x="405" d="M123 1227v233h160v-225l-58 -229h-84l41 221h-59z" />
<glyph unicode="&#x201a;" horiz-adv-x="403" d="M123 129l45 115l115 -119l-23 -236l-63 -102l-39 125l6 96z" />
<glyph unicode="&#x201c;" horiz-adv-x="708" d="M121 1008v225l57 229h84l-41 -221h60v-233h-160zM428 1008v225l61 229h82l-39 -221h56v-233h-160z" />
<glyph unicode="&#x201d;" horiz-adv-x="708" d="M123 1227v233h160v-225l-60 -229h-84l41 221h-57zM428 1227v233h162v-225l-60 -229h-84l41 221h-59z" />
<glyph unicode="&#x201e;" horiz-adv-x="708" d="M123 8v236h160v-228l-60 -229h-84l41 221h-57zM428 8v236h162v-228l-60 -229h-84l41 221h-59z" />
<glyph unicode="&#x2022;" horiz-adv-x="798" d="M160 719q0 100 69.5 169.5t169.5 69.5q99 0 168.5 -70t69.5 -169q0 -97 -69.5 -167.5t-168.5 -70.5t-169 70.5t-70 167.5z" />
<glyph unicode="&#x2026;" horiz-adv-x="1179" d="M133 0v242h162v-242h-162zM510 0v242h162v-242h-162zM887 0v242h162v-242h-162z" />
<glyph unicode="&#x202f;" horiz-adv-x="378" />
<glyph unicode="&#x2039;" horiz-adv-x="524" d="M76 555l248 338l94 -62l-164 -274l168 -278l-96 -58z" />
<glyph unicode="&#x203a;" horiz-adv-x="524" d="M76 836l96 59l250 -334l-248 -340l-96 62l166 276z" />
<glyph unicode="&#x205f;" horiz-adv-x="472" />
<glyph unicode="&#x20ac;" horiz-adv-x="1282" d="M102 528v113h162v182h-162v113h162v113q0 192 132.5 315t338.5 123q199 0 324 -104.5t125 -272.5v-92h-160v82q0 115 -75 184.5t-218 69.5q-137 0 -211 -84.5t-74 -214.5v-119h453v-113h-453v-182h453v-113h-453v-118q0 -140 78 -220.5t219 -80.5q139 0 210 71t71 187v61 h160v-74q0 -175 -124 -277t-325 -102q-210 0 -340.5 110t-130.5 316v127h-162z" />
<glyph unicode="&#x2122;" horiz-adv-x="1226" d="M70 1376v88h446v-88h-172v-563h-100v563h-174zM602 813v651h117l141 -301l137 301h115v-651h-92l-2 481l-125 -274h-70l-129 280v-487h-92z" />
<glyph unicode="&#x25fc;" horiz-adv-x="1044" d="M0 0v1044h1044v-1044h-1044z" />
</font>
</defs>
</svg>
