<svg id="Layer_1" data-name="Layer 1" xmlns="http://www.w3.org/2000/svg" viewBox="0 0 512 512"><defs><style>.cls-1{fill:#fff;}</style></defs><title>calendar-white</title><path class="cls-1" d="M416,0H352V64h64V0Zm64,0H448V96H320V0H192V96H64V0H32A32,32,0,0,0,0,32V480a32,32,0,0,0,32,32H480a32,32,0,0,0,32-32V32A32,32,0,0,0,480,0ZM448,448H64V160H448V448ZM160,0H96V64h64V0ZM288,224H224v64h64V224Zm96,0H320v64h64V224ZM192,320H128v64h64V320Zm0-96H128v64h64V224Zm96,96H224v64h64V320Zm96,0H320v64h64V320Z" transform="translate(0 0)"/></svg>